<!--?xml version="1.0" encoding="utf-8"?-->
<!-- Generator: Adobe Illustrator 22.1.0, SVG Export Plug-In . SVG Version: 6.00 Build 0)  -->
<svg version="1.1" id="_x30_" xmlns="http://www.w3.org/2000/svg" xmlns:xlink="http://www.w3.org/1999/xlink" x="0px" y="0px" viewBox="0 0 800 634.906" style="enable-background:new 0 0 800 634.906;" xml:space="preserve">
<style type="text/css">
	.st0{fill:#040000;}
</style>
<g>
	<g>
		<path class="st0" d="M253.522,362.199c-51.909,51.867-79.437,106.391-75.453,149.65c7.391,81.826,75.523,106.529,148.015,120.992
			c19.087,3.857,23.208-16.488,25.891-29.93c4.99-24.914,11.263-55.766,61.58-58.994c52.035-3.34,64.96,23.083,75.356,44.378
			c5.967,12.24,14.936,30.698,34.54,21.615c70.242-32.78,123.507-63.535,117.023-135.146c-4.065-44.21-39.026-95.253-93.562-136.46
			c-52.623-39.724-112.762-61.872-157.042-57.861C353.944,283.741,299.129,316.592,253.522,362.199z"></path>
	</g>
	<path class="st0" d="M335.64,107.32c38.341,60.558,31.216,133.762-15.887,163.539c-46.977,29.846-116.283,4.974-154.582-55.57
		c-38.412-60.588-31.272-133.833,15.845-163.595C228.091,21.89,297.327,46.775,335.64,107.32z"></path>
	<path class="st0" d="M152.051,276.518c42.072,39.474,51.364,98.062,20.583,130.842c-30.657,32.781-89.776,27.289-131.877-12.17
		c-42.129-39.529-51.322-98.076-20.611-130.912C50.831,231.512,109.88,237.031,152.051,276.518z"></path>
	<path class="st0" d="M758.266,360.313c-42.212,38.258-100.591,42.603-130.395,9.74c-29.692-32.85-19.603-90.503,22.622-128.803
		c42.311-38.243,100.675-42.576,130.451-9.726C810.677,264.418,800.547,322.042,758.266,360.313z"></path>
	<path class="st0" d="M629.184,172.629c-25.388,72.045-91.382,114.424-147.415,94.654c-56.017-19.759-80.847-94.193-55.43-166.166
		C451.77,29.001,517.75-13.28,573.767,6.421C629.798,26.221,654.628,100.641,629.184,172.629z"></path>
</g>
</svg>
